<svg id="visual" viewBox="0 0 960 540" width="960" height="540" xmlns="http://www.w3.org/2000/svg" xmlns:xlink="http://www.w3.org/1999/xlink" version="1.1"><path d="M0 434L8 416.3C16 398.7 32 363.3 48 355C64 346.7 80 365.3 96 374.2C112 383 128 382 144 375.7C160 369.3 176 357.7 192 367.5C208 377.3 224 408.7 240 413.2C256 417.7 272 395.3 288 396.2C304 397 320 421 336 436C352 451 368 457 384 446.5C400 436 416 409 432 408.7C448 408.3 464 434.7 480 447.5C496 460.3 512 459.7 528 453.7C544 447.7 560 436.3 576 419.3C592 402.3 608 379.7 624 366.5C640 353.3 656 349.7 672 364.5C688 379.3 704 412.7 720 424.8C736 437 752 428 768 416C784 404 800 389 816 375.5C832 362 848 350 864 349.7C880 349.3 896 360.7 912 368.8C928 377 944 382 952 384.5L960 387L960 541L952 541C944 541 928 541 912 541C896 541 880 541 864 541C848 541 832 541 816 541C800 541 784 541 768 541C752 541 736 541 720 541C704 541 688 541 672 541C656 541 640 541 624 541C608 541 592 541 576 541C560 541 544 541 528 541C512 541 496 541 480 541C464 541 448 541 432 541C416 541 400 541 384 541C368 541 352 541 336 541C320 541 304 541 288 541C272 541 256 541 240 541C224 541 208 541 192 541C176 541 160 541 144 541C128 541 112 541 96 541C80 541 64 541 48 541C32 541 16 541 8 541L0 541Z" fill="#34a48f"></path><path d="M0 384L8 386.8C16 389.7 32 395.3 48 409.8C64 424.3 80 447.7 96 457.2C112 466.7 128 462.3 144 455.5C160 448.7 176 439.3 192 435.8C208 432.3 224 434.7 240 434.2C256 433.7 272 430.3 288 426.7C304 423 320 419 336 422.5C352 426 368 437 384 445.5C400 454 416 460 432 460.2C448 460.3 464 454.7 480 448.3C496 442 512 435 528 436.7C544 438.3 560 448.7 576 450.3C592 452 608 445 624 445.7C640 446.3 656 454.7 672 461C688 467.3 704 471.7 720 473.3C736 475 752 474 768 461.3C784 448.7 800 424.3 816 415.7C832 407 848 414 864 426C880 438 896 455 912 453C928 451 944 430 952 419.5L960 409L960 541L952 541C944 541 928 541 912 541C896 541 880 541 864 541C848 541 832 541 816 541C800 541 784 541 768 541C752 541 736 541 720 541C704 541 688 541 672 541C656 541 640 541 624 541C608 541 592 541 576 541C560 541 544 541 528 541C512 541 496 541 480 541C464 541 448 541 432 541C416 541 400 541 384 541C368 541 352 541 336 541C320 541 304 541 288 541C272 541 256 541 240 541C224 541 208 541 192 541C176 541 160 541 144 541C128 541 112 541 96 541C80 541 64 541 48 541C32 541 16 541 8 541L0 541Z" fill="#166371"></path><path d="M0 489L8 489.2C16 489.3 32 489.7 48 490.5C64 491.3 80 492.7 96 485.2C112 477.7 128 461.3 144 459.8C160 458.3 176 471.7 192 480.5C208 489.3 224 493.7 240 496.2C256 498.7 272 499.3 288 491.3C304 483.3 320 466.7 336 463.8C352 461 368 472 384 471.2C400 470.3 416 457.7 432 449.2C448 440.7 464 436.3 480 439.2C496 442 512 452 528 455.3C544 458.7 560 455.3 576 461.2C592 467 608 482 624 487.3C640 492.7 656 488.3 672 483.2C688 478 704 472 720 467.5C736 463 752 460 768 457.7C784 455.3 800 453.7 816 456C832 458.3 848 464.7 864 467.7C880 470.7 896 470.3 912 468.8C928 467.3 944 464.7 952 463.3L960 462L960 541L952 541C944 541 928 541 912 541C896 541 880 541 864 541C848 541 832 541 816 541C800 541 784 541 768 541C752 541 736 541 720 541C704 541 688 541 672 541C656 541 640 541 624 541C608 541 592 541 576 541C560 541 544 541 528 541C512 541 496 541 480 541C464 541 448 541 432 541C416 541 400 541 384 541C368 541 352 541 336 541C320 541 304 541 288 541C272 541 256 541 240 541C224 541 208 541 192 541C176 541 160 541 144 541C128 541 112 541 96 541C80 541 64 541 48 541C32 541 16 541 8 541L0 541Z" fill="#1e2833"></path></svg>